# xmcd CD database file
#
# Track frame offsets:
#	150
#	17729
#	35739
#	55454
#	73399
#	92921
#	110040
#	130800
#	146561
#	168605
#	184278
#	201985
#	218658
#	246804
#	270597
#	286177
#	305919
#	321952
#
# Disc length: 4625 seconds
#
# Revision: 2
# Processed by: cddbd v1.5PL3 Copyright (c) Steve Scherf et al.
# Submitted via: CDex 1.51
#
DISCID=27120f12
DTITLE=Maurice/Ramsey/Hemphill/Richoux.Wiecks/Todd - And That's Jazz - hot notes
DYEAR=1997
DGENRE=Jazz
TTITLE0=Black Stick
TTITLE1=Mabel's Dream
TTITLE2=Just a Lucky So and So
TTITLE3=Battle Hymn of the Republic
TTITLE4=Mandy, Make Up Your Mind
TTITLE5=Sidewalk Blues
TTITLE6=Doctor Jazz
TTITLE7=I Thought I Heard Buddy Golden Say
TTITLE8=Once in a While
TTITLE9=Storyville Blues
TTITLE10=The Mooch
TTITLE11=Baby, Won't You Please Come Home
TTITLE12=The Wolverines
TTITLE13=Tin Roof Blues
TTITLE14=Beale Street Blues
TTITLE15=New Orleans
TTITLE16=St. James Infirmary
TTITLE17=Milneburg Joys
EXTD=YEAR: 1997
EXTT0=
EXTT1=
EXTT2=
EXTT3=
EXTT4=
EXTT5=
EXTT6=
EXTT7=
EXTT8=
EXTT9=
EXTT10=
EXTT11=
EXTT12=
EXTT13=
EXTT14=
EXTT15=
EXTT16=
EXTT17=
PLAYORDER=
